<svg width="0" height="0" class="hidden">
  <symbol version="1.1" id="laughing" xmlns="http://www.w3.org/2000/svg" xmlns:xlink="http://www.w3.org/1999/xlink" x="0px" y="0px" xml:space="preserve" viewBox="0 0 512 512">
    <circle cx="255.995" cy="256" r="225.632"></circle>
    <path d="M137.457,374.547C56.289,293.38,49.893,165.759,118.263,77.268
	c-7.573,5.851-14.86,12.247-21.807,19.193c-88.113,88.113-88.113,230.973,0,319.086s230.973,88.113,319.086,0
	c6.946-6.946,13.342-14.234,19.194-21.807C346.244,462.11,218.624,455.714,137.457,374.547z"></path>
    <g>
      <path d="M187.314,198.885c-4.619,0-8.363-3.744-8.363-8.363c0-19.986-16.26-36.246-36.246-36.246
		s-36.246,16.26-36.246,36.246c0,4.619-3.744,8.363-8.363,8.363c-4.619,0-8.363-3.744-8.363-8.363
		c0-29.209,23.763-52.972,52.972-52.972s52.972,23.763,52.972,52.972C195.677,195.141,191.933,198.885,187.314,198.885z"></path>
      <path d="M413.903,198.885c-4.62,0-8.363-3.744-8.363-8.363c0-19.986-16.26-36.246-36.246-36.246
		c-19.985,0-36.245,16.26-36.245,36.246c0,4.619-3.743,8.363-8.363,8.363s-8.363-3.744-8.363-8.363
		c0-29.209,23.763-52.972,52.971-52.972s52.972,23.763,52.972,52.972C422.266,195.141,418.522,198.885,413.903,198.885z"></path>
    </g>
    <path d="M0,256.004L0,256.004c0-27.089,21.96-49.048,49.048-49.048h49.048v49.048
	c0,27.088-21.96,49.048-49.048,49.048l0,0C21.96,305.053,0,283.093,0,256.004z"></path>
    <path d="M23.251,256.004L23.251,256.004c0-27.089,21.96-49.048,49.048-49.048H49.048
	C21.96,206.956,0,228.916,0,256.004l0,0c0,27.089,21.96,49.048,49.048,49.048l0,0c4.008,0,7.898-0.492,11.626-1.398
	C39.199,298.433,23.251,279.086,23.251,256.004z"></path>
    <path d="M512,256.004L512,256.004c0-27.089-21.96-49.048-49.048-49.048h-49.048v49.048
	c0,27.088,21.96,49.048,49.048,49.048l0,0C490.04,305.053,512,283.093,512,256.004z"></path>
    <path d="M432.397,256.004v-49.048h-18.494v49.048c0,27.089,21.96,49.048,49.048,49.048l0,0
	c3.162,0,6.251-0.311,9.247-0.883C449.533,299.844,432.397,279.931,432.397,256.004z"></path>
    <path d="M165.006,232.899c-6.669-5.017-16.205-0.206-16.205,8.139v16.861v12.756
	c0,33.608,15.466,63.614,39.685,83.25c18.432,14.975,41.926,23.94,67.517,23.94s49.085-8.965,67.517-23.94
	c2.888-2.342,5.653-4.828,8.274-7.46c19.402-19.391,31.4-46.186,31.4-75.79v-12.756V241.04c0-8.346-9.536-13.157-16.205-8.139
	C293.249,273.331,218.752,273.331,165.006,232.899z"></path>
    <path d="M363.194,241.04v16.859c-59.198,59.198-155.183,59.198-214.392,0v-16.861
	c0-8.345,9.536-13.157,16.205-8.139c53.746,40.432,128.243,40.433,181.982,0.002C353.657,227.883,363.194,232.694,363.194,241.04z"></path>
    <path d="M283.41,330.049c17.395,0.096,32.46,9.892,40.11,24.229c-18.514,14.874-42.058,23.708-67.648,23.567
	s-49.035-9.236-67.384-24.313c7.795-14.253,22.98-23.881,40.363-23.784c10.225,0.057,19.651,3.464,27.235,9.182
	C263.733,333.297,273.185,329.993,283.41,330.049z"></path>
    <g></g>
    <g></g>
    <g></g>
    <g></g>
    <g></g>
    <g></g>
    <g></g>
    <g></g>
    <g></g>
    <g></g>
    <g></g>
    <g></g>
    <g></g>
    <g></g>
    <g></g>
  </symbol>
  <symbol fill="none" xmlns="http://www.w3.org/2000/svg" viewBox="0 0 24 24" id="comment">
    <path fill-rule="evenodd" clip-rule="evenodd" d="M4.59182 15.3042C2.34396 9.78675 6.40306 3.75 12.3609 3.75H12.6823C17.1379 3.75 20.7499 7.36201 20.7499 11.8176C20.7499 16.7785 16.7284 20.8 11.7676 20.8H3.94731C3.62905 20.8 3.34545 20.5991 3.23982 20.2989C3.13419 19.9987 3.22954 19.6645 3.47769 19.4652L5.44918 17.8819C5.53538 17.8127 5.56587 17.6951 5.52416 17.5927L4.59182 15.3042ZM12.3609 5.25C7.46834 5.25 4.13502 10.2074 5.98096 14.7383L6.9133 17.0268C7.2053 17.7435 6.99184 18.5669 6.38842 19.0515L6.07897 19.3H11.7676C15.9 19.3 19.2499 15.95 19.2499 11.8176C19.2499 8.19044 16.3095 5.25 12.6823 5.25H12.3609Z" fill="black"></path>
  </symbol>
  <symbol xmlns="http://www.w3.org/2000/svg" viewBox="0 0 2050 2050" id="crying">
    <defs></defs>
    <title></title>
    <g id="Layer_1">
      <rect height="2040" width="2040" x="5" y="5"></rect>
    </g>
    <g id="Layer_3">
      <circle cx="1025" cy="1025" r="613.7"></circle>
      <path d="M1068.5,1551.8c-339,0-613.7-274.8-613.7-613.7a613.5,613.5,0,0,1,44.4-229.8A610.7,610.7,0,0,0,411.3,1025c0,338.9,274.8,613.7,613.7,613.7,257.7,0,478.3-158.8,569.2-383.9C1486.8,1432.8,1291.5,1551.8,1068.5,1551.8Z"></path>
      <path d="M1025,411.3A610.4,610.4,0,0,0,659.9,531.7a706.9,706.9,0,0,1,453.2-18.9,27.8,27.8,0,0,0-3.3,5.1c-18.2,33.9,18.9,89.1,82.7,123.3s130.4,34.6,148.6.8a38.6,38.6,0,0,0,3.7-10.5c165.2,128,271.9,328.1,272.9,553.1a613.3,613.3,0,0,0,21-159.6C1638.7,686.1,1363.9,411.3,1025,411.3Z"></path>
      <ellipse cx="1339.4" cy="698.8" rx="30.8" ry="52.8" transform="translate(396.9 1879.5) rotate(-79)"></ellipse>
      <ellipse cx="1235.1" cy="718.7" rx="17.2" ry="25" transform="translate(-4.9 1429) rotate(-60)"></ellipse>
      <path d="M885.9,1332.9c-10.2-111.3-64-106.3-74.2-217.6s43.6-116.2,33.4-227.5L732.8,897.9c10.2,111.3-43.6,116.2-33.4,227.5s64,106.3,74.2,217.6-43,116.2-33.6,225.6a604.4,604.4,0,0,0,110.3,44.9c3-3.6,6.1-7.4,9.2-11.4C849.3,1490.9,896,1444.2,885.9,1332.9Z"></path>
      <path d="M753.8,1465.1c-9.6,26.1-18,54.3-13.8,103.5a604.4,604.4,0,0,0,110.3,44.9c3-3.6,6.1-7.4,9.2-11.4a331.8,331.8,0,0,1,3.1-85.7A615.4,615.4,0,0,1,753.8,1465.1Z"></path>
      <path d="M1100.5,1144a29.2,29.2,0,0,1-15-4.1c-41.3-23.9-79.7-23.9-121,0a30,30,0,0,1-30.1-51.9c29.7-17.2,60.2-26,90.6-26s60.9,8.8,90.6,26a30,30,0,0,1-15.1,56Z"></path>
      <path d="M906.9,909.8H675.5a30,30,0,0,1,0-60H906.9a30,30,0,0,1,0,60Z"></path>
      <path d="M1164.1,1332.9c10.2-111.3,64-106.3,74.2-217.6s-43.6-116.2-33.4-227.5l112.3,10.1c-10.2,111.3,43.6,116.2,33.4,227.5s-64,106.3-74.2,217.6,43,116.2,33.6,225.6a604.4,604.4,0,0,1-110.3,44.9c-3-3.6-6.1-7.4-9.2-11.4C1200.7,1490.9,1154,1444.2,1164.1,1332.9Z"></path>
      <path d="M1190.5,1602.1c3.1,4,6.2,7.8,9.2,11.4a604.4,604.4,0,0,0,110.3-44.9c2.3-27,.8-47.6-2.5-65.1a609.6,609.6,0,0,1-117.1,36.2A332,332,0,0,1,1190.5,1602.1Z"></path>
      <path d="M1143.1,909.8h231.4a30,30,0,0,0,0-60H1143.1a30,30,0,0,0,0,60Z"></path>
    </g>
  </symbol>
  <symbol version="1.1" id="heart" xmlns="http://www.w3.org/2000/svg" xmlns:xlink="http://www.w3.org/1999/xlink" x="0px" y="0px" xml:space="preserve" viewBox="0 0 45.743 45.743">
    <g>
      <path d="M34.199,3.83c-3.944,0-7.428,1.98-9.51,4.997c0,0-0.703,1.052-1.818,1.052c-1.114,0-1.817-1.052-1.817-1.052
		c-2.083-3.017-5.565-4.997-9.51-4.997C5.168,3.83,0,8.998,0,15.376c0,1.506,0.296,2.939,0.82,4.258
		c3.234,10.042,17.698,21.848,22.051,22.279c4.354-0.431,18.816-12.237,22.052-22.279c0.524-1.318,0.82-2.752,0.82-4.258
		C45.743,8.998,40.575,3.83,34.199,3.83z"></path>
    </g>
    <g></g>
    <g></g>
    <g></g>
    <g></g>
    <g></g>
    <g></g>
    <g></g>
    <g></g>
    <g></g>
    <g></g>
    <g></g>
    <g></g>
    <g></g>
    <g></g>
    <g></g>
  </symbol>
  <symbol xmlns="http://www.w3.org/2000/svg" viewBox="0 0 2050 2050" id="wink">
    <defs></defs>
    <title></title>
    <g id="Layer_1">
      <rect height="2040" width="2040" x="5" y="5"></rect>
    </g>
    <g id="Layer_3">
      <circle cx="1025" cy="1025" r="613.7"></circle>
      <path d="M1068.5,1551.8c-339,0-613.7-274.8-613.7-613.7a613.5,613.5,0,0,1,44.4-229.8A610.7,610.7,0,0,0,411.3,1025c0,338.9,274.8,613.7,613.7,613.7,257.7,0,478.3-158.8,569.2-383.9C1486.8,1432.8,1291.5,1551.8,1068.5,1551.8Z"></path>
      <path d="M1025,411.3A610.4,610.4,0,0,0,659.9,531.7a706.9,706.9,0,0,1,453.2-18.9,27.8,27.8,0,0,0-3.3,5.1c-18.2,33.9,18.9,89.1,82.7,123.3s130.4,34.6,148.6.8a38.6,38.6,0,0,0,3.7-10.5c165.2,128,271.9,328.1,272.9,553.1a613.3,613.3,0,0,0,21-159.6C1638.7,686.1,1363.9,411.3,1025,411.3Z"></path>
      <ellipse cx="1339.4" cy="698.8" rx="30.8" ry="52.8" transform="translate(396.9 1879.5) rotate(-79)"></ellipse>
      <ellipse cx="1235.1" cy="718.7" rx="17.2" ry="25" transform="translate(-4.9 1429) rotate(-60)"></ellipse>
      <ellipse cx="809.8" cy="930.8" rx="109.1" ry="69.2" transform="translate(-155.2 1699.5) rotate(-87.5)"></ellipse>
      <circle cx="848.1" cy="932.4" r="19.1"></circle>
      <path d="M1138.7,945.6a30.7,30.7,0,0,1-13.7-3.3,30,30,0,0,1-13-40.4c26.2-51.3,63.4-79.5,104.7-79.5s78.5,28.2,104.7,79.5a30,30,0,0,1-53.4,27.4c-15-29.4-34.2-46.9-51.3-46.9s-36.3,17.5-51.3,46.9A30,30,0,0,1,1138.7,945.6Z"></path>
      <path d="M1034,1283.5c-8.8,0-17.9-.3-27.3-1a426.8,426.8,0,0,1-77.8-12.8,30,30,0,0,1,16.4-57.7h0a378.5,378.5,0,0,0,66.9,10.7c32.1,2.2,77.1.6,108.7-19.5,21.6-13.7,34.4-34.7,39.3-63.9a30,30,0,1,1,59.2,9.7c-7.7,46.5-30,81.8-66.5,104.9C1121.9,1273.6,1082,1283.5,1034,1283.5Z"></path>
    </g>
  </symbol>
  <symbol viewBox="0 0 0 0" id="sprite">
    <symbol xmlns="http://www.w3.org/2000/svg" viewBox="0 0 2050 2050" id="laughing">
      <defs></defs>
      <title></title>
      <g id="Layer_1">
        <rect height="2040" width="2040" x="5" y="5"></rect>
      </g>
      <g id="Layer_3">
        <circle cx="1025" cy="1025" r="613.7"></circle>
        <path d="M1068.5,1551.8c-339,0-613.7-274.8-613.7-613.7a613.5,613.5,0,0,1,44.4-229.8A610.7,610.7,0,0,0,411.3,1025c0,338.9,274.8,613.7,613.7,613.7,257.7,0,478.3-158.8,569.2-383.9C1486.8,1432.8,1291.5,1551.8,1068.5,1551.8Z"></path>
        <path d="M1025,411.3A610.4,610.4,0,0,0,659.9,531.7a706.9,706.9,0,0,1,453.2-18.9,27.8,27.8,0,0,0-3.3,5.1c-18.2,33.9,18.9,89.1,82.7,123.3s130.4,34.6,148.6.8a38.6,38.6,0,0,0,3.7-10.5c165.2,128,271.9,328.1,272.9,553.1a613.3,613.3,0,0,0,21-159.6C1638.7,686.1,1363.9,411.3,1025,411.3Z"></path>
        <ellipse cx="1339.4" cy="698.8" rx="30.8" ry="52.8" transform="translate(396.9 1879.5) rotate(-79)"></ellipse>
        <ellipse cx="1235.1" cy="718.7" rx="17.2" ry="25" transform="translate(-4.9 1429) rotate(-60)"></ellipse>
        <path d="M734.3,1008.4a30,30,0,0,1-15-56l92.8-53.7-72.2-35.1a30,30,0,0,1,26.1-54l123.1,59.7a30.1,30.1,0,0,1,2,53l-141.8,82A29.2,29.2,0,0,1,734.3,1008.4Z"></path>
        <path d="M1315.7,1008.4a29.2,29.2,0,0,1-15-4.1l-141.8-82a30.1,30.1,0,0,1,2-53L1284,809.6a30,30,0,0,1,26.1,54l-72.2,35.1,92.8,53.7a30,30,0,0,1-15,56Z"></path>
        <path d="M1025,1320.9h0c-121.4,0-219.8-98.4-219.8-219.8v-25h0a756.7,756.7,0,0,1,439.6,0h0v25C1244.8,1222.5,1146.4,1320.9,1025,1320.9Z"></path>
        <path d="M1025,1320.9h0a218.1,218.1,0,0,0,106-27.2c-18.1-58.4-58.8-99.1-106-99.1s-87.9,40.7-106,99.1A218.1,218.1,0,0,0,1025,1320.9Z"></path>
        <path d="M550.2,1203.6h0a78.4,78.4,0,0,1,20.9-93.5l66.3-55.1a27.7,27.7,0,0,1,44.8,16.2l15.9,84.7a78.5,78.5,0,0,1-43.7,85.3h0A78.4,78.4,0,0,1,550.2,1203.6Z"></path>
        <path d="M1499.8,1203.6h0a78.4,78.4,0,0,0-20.9-93.5l-66.3-55.1a27.7,27.7,0,0,0-44.8,16.2l-15.9,84.7a78.5,78.5,0,0,0,43.7,85.3h0A78.4,78.4,0,0,0,1499.8,1203.6Z"></path>
      </g>
    </symbol>
    <symbol xmlns="http://www.w3.org/2000/svg" viewBox="0 0 2050 2050" id="wink">
      <defs></defs>
      <title></title>
      <g id="Layer_1">
        <rect height="2040" width="2040" x="5" y="5"></rect>
      </g>
      <g id="Layer_3">
        <circle cx="1025" cy="1025" r="613.7"></circle>
        <path d="M1068.5,1551.8c-339,0-613.7-274.8-613.7-613.7a613.5,613.5,0,0,1,44.4-229.8A610.7,610.7,0,0,0,411.3,1025c0,338.9,274.8,613.7,613.7,613.7,257.7,0,478.3-158.8,569.2-383.9C1486.8,1432.8,1291.5,1551.8,1068.5,1551.8Z"></path>
        <path d="M1025,411.3A610.4,610.4,0,0,0,659.9,531.7a706.9,706.9,0,0,1,453.2-18.9,27.8,27.8,0,0,0-3.3,5.1c-18.2,33.9,18.9,89.1,82.7,123.3s130.4,34.6,148.6.8a38.6,38.6,0,0,0,3.7-10.5c165.2,128,271.9,328.1,272.9,553.1a613.3,613.3,0,0,0,21-159.6C1638.7,686.1,1363.9,411.3,1025,411.3Z"></path>
        <ellipse cx="1339.4" cy="698.8" rx="30.8" ry="52.8" transform="translate(396.9 1879.5) rotate(-79)"></ellipse>
        <ellipse cx="1235.1" cy="718.7" rx="17.2" ry="25" transform="translate(-4.9 1429) rotate(-60)"></ellipse>
        <ellipse cx="809.8" cy="930.8" rx="109.1" ry="69.2" transform="translate(-155.2 1699.5) rotate(-87.5)"></ellipse>
        <circle cx="848.1" cy="932.4" r="19.1"></circle>
        <path d="M1138.7,945.6a30.7,30.7,0,0,1-13.7-3.3,30,30,0,0,1-13-40.4c26.2-51.3,63.4-79.5,104.7-79.5s78.5,28.2,104.7,79.5a30,30,0,0,1-53.4,27.4c-15-29.4-34.2-46.9-51.3-46.9s-36.3,17.5-51.3,46.9A30,30,0,0,1,1138.7,945.6Z"></path>
        <path d="M1034,1283.5c-8.8,0-17.9-.3-27.3-1a426.8,426.8,0,0,1-77.8-12.8,30,30,0,0,1,16.4-57.7h0a378.5,378.5,0,0,0,66.9,10.7c32.1,2.2,77.1.6,108.7-19.5,21.6-13.7,34.4-34.7,39.3-63.9a30,30,0,1,1,59.2,9.7c-7.7,46.5-30,81.8-66.5,104.9C1121.9,1273.6,1082,1283.5,1034,1283.5Z"></path>
      </g>
    </symbol>
    <symbol fill="none" xmlns="http://www.w3.org/2000/svg" viewBox="0 0 24 24" id="comment">
      <path fill-rule="evenodd" clip-rule="evenodd" d="M4.59182 15.3042C2.34396 9.78675 6.40306 3.75 12.3609 3.75H12.6823C17.1379 3.75 20.7499 7.36201 20.7499 11.8176C20.7499 16.7785 16.7284 20.8 11.7676 20.8H3.94731C3.62905 20.8 3.34545 20.5991 3.23982 20.2989C3.13419 19.9987 3.22954 19.6645 3.47769 19.4652L5.44918 17.8819C5.53538 17.8127 5.56587 17.6951 5.52416 17.5927L4.59182 15.3042ZM12.3609 5.25C7.46834 5.25 4.13502 10.2074 5.98096 14.7383L6.9133 17.0268C7.2053 17.7435 6.99184 18.5669 6.38842 19.0515L6.07897 19.3H11.7676C15.9 19.3 19.2499 15.95 19.2499 11.8176C19.2499 8.19044 16.3095 5.25 12.6823 5.25H12.3609Z" fill="black"></path>
    </symbol>
    <symbol xmlns="http://www.w3.org/2000/svg" viewBox="0 0 2050 2050" id="crying">
      <defs></defs>
      <title></title>
      <g id="Layer_1">
        <rect height="2040" width="2040" x="5" y="5"></rect>
      </g>
      <g id="Layer_3">
        <circle cx="1025" cy="1025" r="613.7"></circle>
        <path d="M1068.5,1551.8c-339,0-613.7-274.8-613.7-613.7a613.5,613.5,0,0,1,44.4-229.8A610.7,610.7,0,0,0,411.3,1025c0,338.9,274.8,613.7,613.7,613.7,257.7,0,478.3-158.8,569.2-383.9C1486.8,1432.8,1291.5,1551.8,1068.5,1551.8Z"></path>
        <path d="M1025,411.3A610.4,610.4,0,0,0,659.9,531.7a706.9,706.9,0,0,1,453.2-18.9,27.8,27.8,0,0,0-3.3,5.1c-18.2,33.9,18.9,89.1,82.7,123.3s130.4,34.6,148.6.8a38.6,38.6,0,0,0,3.7-10.5c165.2,128,271.9,328.1,272.9,553.1a613.3,613.3,0,0,0,21-159.6C1638.7,686.1,1363.9,411.3,1025,411.3Z"></path>
        <ellipse cx="1339.4" cy="698.8" rx="30.8" ry="52.8" transform="translate(396.9 1879.5) rotate(-79)"></ellipse>
        <ellipse cx="1235.1" cy="718.7" rx="17.2" ry="25" transform="translate(-4.9 1429) rotate(-60)"></ellipse>
        <path d="M885.9,1332.9c-10.2-111.3-64-106.3-74.2-217.6s43.6-116.2,33.4-227.5L732.8,897.9c10.2,111.3-43.6,116.2-33.4,227.5s64,106.3,74.2,217.6-43,116.2-33.6,225.6a604.4,604.4,0,0,0,110.3,44.9c3-3.6,6.1-7.4,9.2-11.4C849.3,1490.9,896,1444.2,885.9,1332.9Z"></path>
        <path d="M753.8,1465.1c-9.6,26.1-18,54.3-13.8,103.5a604.4,604.4,0,0,0,110.3,44.9c3-3.6,6.1-7.4,9.2-11.4a331.8,331.8,0,0,1,3.1-85.7A615.4,615.4,0,0,1,753.8,1465.1Z"></path>
        <path d="M1100.5,1144a29.2,29.2,0,0,1-15-4.1c-41.3-23.9-79.7-23.9-121,0a30,30,0,0,1-30.1-51.9c29.7-17.2,60.2-26,90.6-26s60.9,8.8,90.6,26a30,30,0,0,1-15.1,56Z"></path>
        <path d="M906.9,909.8H675.5a30,30,0,0,1,0-60H906.9a30,30,0,0,1,0,60Z"></path>
        <path d="M1164.1,1332.9c10.2-111.3,64-106.3,74.2-217.6s-43.6-116.2-33.4-227.5l112.3,10.1c-10.2,111.3,43.6,116.2,33.4,227.5s-64,106.3-74.2,217.6,43,116.2,33.6,225.6a604.4,604.4,0,0,1-110.3,44.9c-3-3.6-6.1-7.4-9.2-11.4C1200.7,1490.9,1154,1444.2,1164.1,1332.9Z"></path>
        <path d="M1190.5,1602.1c3.1,4,6.2,7.8,9.2,11.4a604.4,604.4,0,0,0,110.3-44.9c2.3-27,.8-47.6-2.5-65.1a609.6,609.6,0,0,1-117.1,36.2A332,332,0,0,1,1190.5,1602.1Z"></path>
        <path d="M1143.1,909.8h231.4a30,30,0,0,0,0-60H1143.1a30,30,0,0,0,0,60Z"></path>
      </g>
    </symbol>
    <symbol version="1.1" id="heart" xmlns="http://www.w3.org/2000/svg" xmlns:xlink="http://www.w3.org/1999/xlink" x="0px" y="0px" xml:space="preserve" viewBox="0 0 45.743 45.743">
      <g>
        <path d="M34.199,3.83c-3.944,0-7.428,1.98-9.51,4.997c0,0-0.703,1.052-1.818,1.052c-1.114,0-1.817-1.052-1.817-1.052
		c-2.083-3.017-5.565-4.997-9.51-4.997C5.168,3.83,0,8.998,0,15.376c0,1.506,0.296,2.939,0.82,4.258
		c3.234,10.042,17.698,21.848,22.051,22.279c4.354-0.431,18.816-12.237,22.052-22.279c0.524-1.318,0.82-2.752,0.82-4.258
		C45.743,8.998,40.575,3.83,34.199,3.83z"></path>
      </g>
      <g></g>
      <g></g>
      <g></g>
      <g></g>
      <g></g>
      <g></g>
      <g></g>
      <g></g>
      <g></g>
      <g></g>
      <g></g>
      <g></g>
      <g></g>
      <g></g>
      <g></g>
    </symbol>
  </symbol>
  <symbol version="1.1" id="happy" xmlns="http://www.w3.org/2000/svg" xmlns:xlink="http://www.w3.org/1999/xlink" x="0px" y="0px" xml:space="preserve" viewBox="0 0 512.009 512.009">
    <circle cx="256.004" cy="256.004" r="256.004"></circle>
    <g>
      <path d="M121.499,390.501C29.407,298.407,22.15,153.608,99.723,53.204
		c-8.593,6.638-16.861,13.895-24.743,21.777c-99.974,99.974-99.974,262.065,0,362.038s262.065,99.974,362.038,0
		c7.881-7.881,15.138-16.15,21.777-24.743C358.392,489.85,213.593,482.593,121.499,390.501z"></path>
      <path d="M256.001,406.199c-15.303,0-30.599-2.085-45.475-6.255c-5.045-1.414-7.989-6.652-6.575-11.699
		c1.414-5.045,6.652-7.992,11.698-6.575c26.399,7.401,54.307,7.401,80.706,0c5.049-1.412,10.283,1.53,11.698,6.575
		c1.414,5.045-1.53,10.283-6.575,11.698C286.602,404.114,271.299,406.199,256.001,406.199z"></path>
    </g>
    <g>
      <path d="M384.701,297.195c-70.969,70.966-186.441,70.964-257.402,0c-3.707-3.706-9.714-3.706-13.42,0
		c-3.706,3.706-3.706,9.714,0,13.418c39.188,39.187,90.645,58.774,142.121,58.774c51.463,0,102.942-19.596,142.121-58.774
		c3.706-3.706,3.706-9.714,0-13.418C394.415,293.49,388.408,293.488,384.701,297.195z"></path>
      <path d="M142.674,231.083c19.358,0,35.107-15.749,35.107-35.107s-15.749-35.107-35.107-35.107
		s-35.107,15.749-35.107,35.107S123.316,231.083,142.674,231.083z"></path>
      <path d="M369.326,160.87c-19.358,0-35.107,15.749-35.107,35.107s15.749,35.107,35.107,35.107
		s35.107-15.749,35.107-35.107S388.684,160.87,369.326,160.87z"></path>
    </g>
    <g></g>
    <g></g>
    <g></g>
    <g></g>
    <g></g>
    <g></g>
    <g></g>
    <g></g>
    <g></g>
    <g></g>
    <g></g>
    <g></g>
    <g></g>
    <g></g>
    <g></g>
  </symbol>
  <symbol version="1.1" id="confused" xmlns="http://www.w3.org/2000/svg" xmlns:xlink="http://www.w3.org/1999/xlink" x="0px" y="0px" xml:space="preserve" viewBox="0 0 512.009 512.009">
    <circle cx="252.458" cy="260.711" r="251.298"></circle>
    <path d="M120.428,392.735c-90.4-90.4-97.524-232.538-21.377-331.094c-8.435,6.516-16.551,13.64-24.288,21.377
	c-98.136,98.136-98.136,257.246,0,355.382s257.246,98.136,355.382,0c7.736-7.736,14.859-15.853,21.377-24.288
	C352.966,490.257,210.828,483.135,120.428,392.735z"></path>
    <path d="M125.782,283.44h253.347c0,14.22-2.347,27.893-6.669,40.66H132.451
	C128.129,311.333,125.782,297.66,125.782,283.44z"></path>
    <path d="M132.451,324.1H372.46c-8.519,25.161-24.726,46.757-45.826,62.02
	c-8.867-14.94-25.161-24.95-43.802-24.95c-11.388,0-21.895,3.738-30.377,10.059c-8.482-6.321-19.001-10.059-30.389-10.059
	c-18.628,0-34.935,10.01-43.789,24.95C157.177,370.857,140.97,349.261,132.451,324.1z"></path>
    <path d="M282.832,361.171c18.641,0,34.935,10.01,43.802,24.95c-20.851,15.101-46.484,23.993-74.178,23.993
	s-53.327-8.892-74.178-23.993c8.855-14.94,25.161-24.95,43.789-24.95c11.388,0,21.907,3.738,30.389,10.059
	C260.937,364.909,271.444,361.171,282.832,361.171z"></path>
    <path d="M409.645,125.762L409.645,125.762c-23.153-23.153-23.153-60.689,0-83.84L451.565,0l41.92,41.92
	c23.151,23.151,23.151,60.689,0,83.84l0,0C470.333,148.913,432.796,148.913,409.645,125.762z"></path>
    <path d="M439.448,125.762L439.448,125.762c-23.151-23.151-23.151-60.689,0-83.84l27.019-27.019L451.565,0
	l-41.92,41.92c-23.151,23.153-23.151,60.689,0,83.84l0,0c15.4,15.4,37.16,20.542,56.823,15.455
	C456.568,138.656,447.201,133.514,439.448,125.762z"></path>
    <g>
      <path d="M166.642,207.911c0,5.144,4.17,9.314,9.314,9.314c5.144,0,9.314-4.17,9.314-9.314
		c0-32.531-26.466-58.997-58.997-58.997c-32.53,0-58.996,26.466-58.996,58.997c0,5.144,4.17,9.314,9.314,9.314
		c5.144,0,9.314-4.17,9.314-9.314c0-22.26,18.109-40.369,40.368-40.369C148.532,167.543,166.642,185.652,166.642,207.911z"></path>
      <path d="M378.637,148.914c-32.53,0-58.996,26.466-58.996,58.997c0,5.144,4.17,9.314,9.314,9.314
		c5.144,0,9.314-4.17,9.314-9.314c0-22.26,18.109-40.369,40.368-40.369c22.26,0,40.369,18.109,40.369,40.369
		c0,5.144,4.17,9.314,9.314,9.314c5.144,0,9.314-4.17,9.314-9.314C437.634,175.38,411.168,148.914,378.637,148.914z"></path>
    </g>
    <g></g>
    <g></g>
    <g></g>
    <g></g>
    <g></g>
    <g></g>
    <g></g>
    <g></g>
    <g></g>
    <g></g>
    <g></g>
    <g></g>
    <g></g>
    <g></g>
    <g></g>
  </symbol>
</svg>